# xmcd
#
# Track frame offsets:
#	150
#	17910
#	37260
#	54545
#	72902
#	77112
#	93242
#	119842
#	142477
#	159320
#	177350
#	187930
#	206570
#	230282
#	235057
#	251457
#	265182
#	284255
#	299752
#
# Disc length: 4051 seconds
#
# Revision: 1
# Processed by: cddbd v1.4PL0 Copyright (c) Steve Scherf et al.
# Submitted via: EasyCDDAExtractor 5.1.0
#
DISCID=210fd113
DTITLE=Rocky Padilla - Tribute to the Oldies, Vol. 2
DYEAR=1996
DGENRE=Slow Jam
TTITLE0=It'll Never Be over for Me 
TTITLE1=To Be With You 
TTITLE2=I Need Someone
TTITLE3=Crei
TTITLE4=Hello Brother (Interlude)
TTITLE5=Are You Angry 
TTITLE6=To Say I Love You 
TTITLE7=Mujer Mija (The Letter)
TTITLE8=Beggin You/The Town I Live In 
TTITLE9=Dreaming Casually 
TTITLE10=Sad Girl ['96]
TTITLE11=Makin' Ends Meet 
TTITLE12=Baby 
TTITLE13=Brotherlude 
TTITLE14=Brother, Where Are You 
TTITLE15=Lo Mucho Que to Quero 
TTITLE16=Dichoso
TTITLE17=That's All 
TTITLE18=See You Later Brother (Interlude)
EXTD=
EXTT0=
EXTT1=
EXTT2=
EXTT3=
EXTT4=
EXTT5=
EXTT6=
EXTT7=
EXTT8=
EXTT9=
EXTT10=
EXTT11=
EXTT12=
EXTT13=
EXTT14=
EXTT15=
EXTT16=
EXTT17=
EXTT18=
PLAYORDER=
